<svg width="24" height="24" viewBox="0 0 24 24" fill="none" xmlns="http://www.w3.org/2000/svg">
<path d="M4.24686 8.51001H4.19586C3.53986 8.51001 3.00586 9.04701 3.00586 9.70001V14.883C3.00586 15.539 3.53986 16.073 4.19586 16.073H4.24786C4.90286 16.073 5.43786 15.538 5.43786 14.883V9.70001C5.43654 9.38463 5.31061 9.08257 5.08751 8.85965C4.86441 8.63674 4.56224 8.51106 4.24686 8.51001ZM6.00686 16.883C6.00686 17.485 6.49886 17.975 7.10086 17.975H8.27086V20.775C8.27086 21.432 8.80586 21.966 9.46086 21.966H9.51086C10.1679 21.966 10.7029 21.431 10.7029 20.774V17.975H12.3369V20.775C12.3369 21.432 12.8749 21.966 13.5289 21.966H13.5789C14.2359 21.966 14.7699 21.431 14.7699 20.774V17.975H15.9399C16.5409 17.975 17.0329 17.485 17.0329 16.883V8.70101H6.00686V16.883ZM14.2659 3.73801L15.1949 2.30501C15.2098 2.28335 15.2203 2.25892 15.2256 2.23316C15.231 2.20739 15.2311 2.18082 15.226 2.155C15.2209 2.12918 15.2107 2.10465 15.196 2.08284C15.1813 2.06103 15.1623 2.0424 15.1403 2.02803C15.1182 2.01367 15.0935 2.00387 15.0676 1.99921C15.0417 1.99455 15.0152 1.99512 14.9895 2.0009C14.9638 2.00668 14.9396 2.01754 14.9182 2.03284C14.8968 2.04815 14.8786 2.06758 14.8649 2.09001L13.9019 3.57301C13.1461 3.26578 12.3377 3.10885 11.5219 3.11101C10.7054 3.1087 9.89628 3.26563 9.13986 3.57301L8.17886 2.09001C8.16477 2.06796 8.14643 2.04894 8.12491 2.03406C8.10339 2.01918 8.07912 2.00874 8.05352 2.00334C8.02792 1.99794 8.0015 1.9977 7.97581 2.00262C7.95011 2.00754 7.92565 2.01753 7.90386 2.03201C7.88209 2.04609 7.86332 2.06434 7.84861 2.08569C7.83391 2.10705 7.82357 2.1311 7.81818 2.15647C7.81279 2.18183 7.81246 2.20801 7.81721 2.2335C7.82196 2.25899 7.8317 2.28329 7.84586 2.30501L8.77586 3.73801C7.09986 4.56001 5.96986 6.10701 5.96986 7.88201C5.96986 7.99201 5.97586 8.09901 5.98586 8.20501H17.0559C17.0646 8.09756 17.0693 7.98981 17.0699 7.88201C17.0699 6.10701 15.9409 4.56001 14.2659 3.73801ZM8.95486 6.30501C8.81376 6.30527 8.67834 6.24948 8.57839 6.1499C8.47843 6.05031 8.42212 5.9151 8.42186 5.77401C8.42159 5.63291 8.47739 5.49749 8.57697 5.39753C8.67655 5.29758 8.81176 5.24127 8.95286 5.24101C9.09395 5.24074 9.22938 5.29654 9.32933 5.39612C9.42929 5.4957 9.48559 5.63091 9.48586 5.77201C9.48612 5.9131 9.43033 6.04852 9.33075 6.14848C9.23117 6.24844 9.09595 6.30474 8.95486 6.30501ZM14.0869 6.30501C14.017 6.3052 13.9478 6.29164 13.8832 6.26509C13.8185 6.23853 13.7598 6.19951 13.7102 6.15025C13.6102 6.05076 13.5538 5.9156 13.5534 5.77451C13.553 5.63341 13.6086 5.49794 13.7081 5.39789C13.8076 5.29784 13.9428 5.24141 14.0839 5.24101C14.225 5.24061 14.3604 5.29628 14.4605 5.39577C14.5605 5.49525 14.617 5.63041 14.6174 5.77151C14.6178 5.9126 14.5621 6.04808 14.4626 6.14813C14.3631 6.24818 14.228 6.30461 14.0869 6.30501ZM18.8449 8.51001H18.7949C18.1399 8.51001 17.6039 9.04701 17.6039 9.70001V14.883C17.6039 15.539 18.1409 16.073 18.7949 16.073H18.8449C19.5019 16.073 20.0359 15.538 20.0359 14.883V9.70001C20.0359 9.04601 19.5009 8.51001 18.8449 8.51001Z" fill="#0C024D"/>
</svg>
