<svg width="36" height="26" viewBox="0 0 36 26" fill="none" xmlns="http://www.w3.org/2000/svg">
<g clip-path="url(#clip0_156_184)">
<path d="M36 22C36 23.0609 35.5786 24.0783 34.8284 24.8284C34.0783 25.5786 33.0609 26 32 26H4C2.93913 26 1.92172 25.5786 1.17157 24.8284C0.421427 24.0783 0 23.0609 0 22V4C0 2.93913 0.421427 1.92172 1.17157 1.17157C1.92172 0.421427 2.93913 0 4 0H32C33.0609 0 34.0783 0.421427 34.8284 1.17157C35.5786 1.92172 36 2.93913 36 4V22Z" fill="#009B3A"/>
<path d="M32.728 13L18 24.124L3.27197 13L18 1.875L32.728 13Z" fill="#FEDF01"/>
<path d="M17.9761 19.382C21.5427 19.382 24.4341 16.4907 24.4341 12.924C24.4341 9.35735 21.5427 6.466 17.9761 6.466C14.4094 6.466 11.5181 9.35735 11.5181 12.924C11.5181 16.4907 14.4094 19.382 17.9761 19.382Z" fill="#002776"/>
<path d="M12.277 9.88701C11.9416 10.5191 11.7144 11.2029 11.605 11.91C15.6 11.62 21.022 13.801 23.349 16.505C23.751 15.901 24.049 15.225 24.232 14.501C21.36 11.693 16.315 9.87101 12.277 9.88701Z" fill="#CBE9D4"/>
<path d="M12 13.233H13V14.233H12V13.233ZM13 15.233H14V16.233H13V15.233Z" fill="#88C9F9"/>
<path d="M15 13.233H16V14.233H15V13.233ZM17 14.233H18V15.233H17V14.233ZM21 16.233H22V17.233H21V16.233ZM18 17.233H19V18.233H18V17.233ZM21 11.233H22V12.233H21V11.233Z" fill="#55ACEE"/>
<path d="M19 15.233H20V16.233H19V15.233Z" fill="#3B88C3"/>
</g>
<defs>
<clipPath id="clip0_156_184">
<rect width="36" height="26" fill="white"/>
</clipPath>
</defs>
</svg>
