<svg width="18" height="20" viewBox="0 0 24 24" fill="none" xmlns="http://www.w3.org/2000/svg">
<g clip-path="url(#clip0_156_199)">
<path d="M12.0002 17.17C11.3431 17.1712 10.6923 17.0428 10.0849 16.7923C9.47746 16.5418 8.92538 16.174 8.46019 15.71L0.290185 7.53999C0.101882 7.35169 -0.00390625 7.09629 -0.00390625 6.82999C-0.00390625 6.56369 0.101882 6.30829 0.290185 6.11999C0.478489 5.93169 0.733884 5.8259 1.00019 5.8259C1.26649 5.8259 1.52188 5.93169 1.71019 6.11999L9.88019 14.29C10.4427 14.8518 11.2052 15.1673 12.0002 15.1673C12.7952 15.1673 13.5577 14.8518 14.1202 14.29L22.2902 6.11999C22.4785 5.93169 22.7339 5.8259 23.0002 5.8259C23.2665 5.8259 23.5219 5.93169 23.7102 6.11999C23.8985 6.30829 24.0043 6.56369 24.0043 6.82999C24.0043 7.09629 23.8985 7.35169 23.7102 7.53999L15.5402 15.71C15.075 16.174 14.5229 16.5418 13.9155 16.7923C13.3081 17.0428 12.6572 17.1712 12.0002 17.17Z" fill="#0C024D"/>
</g>
<defs>
<clipPath id="clip0_156_199">
<rect width="24" height="18" fill="white"/>
</clipPath>
</defs>
</svg>
